%TF.GenerationSoftware,KiCad,Pcbnew,(5.1.10)-1*%
%TF.CreationDate,2022-03-13T21:43:14-05:00*%
%TF.ProjectId,ArmMotorPCB,41726d4d-6f74-46f7-9250-43422e6b6963,rev?*%
%TF.SameCoordinates,Original*%
%TF.FileFunction,Legend,Bot*%
%TF.FilePolarity,Positive*%
%FSLAX46Y46*%
G04 Gerber Fmt 4.6, Leading zero omitted, Abs format (unit mm)*
G04 Created by KiCad (PCBNEW (5.1.10)-1) date 2022-03-13 21:43:14*
%MOMM*%
%LPD*%
G01*
G04 APERTURE LIST*
%ADD10C,0.120000*%
%ADD11C,0.254000*%
%ADD12C,0.300000*%
%ADD13C,0.127000*%
G04 APERTURE END LIST*
D10*
X137795000Y-63500000D02*
X137795000Y-64135000D01*
X137795000Y-63500000D02*
X137795000Y-62865000D01*
X137795000Y-63500000D02*
X137160000Y-63500000D01*
X138430000Y-63500000D02*
X137795000Y-63500000D01*
X137795000Y-63500000D02*
X138430000Y-63500000D01*
X137160000Y-63500000D02*
X137668000Y-63500000D01*
X137795000Y-64135000D02*
X137795000Y-63500000D01*
D11*
X145754522Y-60467801D02*
G75*
G03*
X129794001Y-60579001I-7959522J-3032199D01*
G01*
D12*
X143795000Y-68364571D02*
X143795000Y-66864571D01*
X143295000Y-67936000D01*
X142795000Y-66864571D01*
X142795000Y-68364571D01*
X141223571Y-68364571D02*
X141723571Y-67650285D01*
X142080714Y-68364571D02*
X142080714Y-66864571D01*
X141509285Y-66864571D01*
X141366428Y-66936000D01*
X141295000Y-67007428D01*
X141223571Y-67150285D01*
X141223571Y-67364571D01*
X141295000Y-67507428D01*
X141366428Y-67578857D01*
X141509285Y-67650285D01*
X142080714Y-67650285D01*
X140580714Y-68364571D02*
X140580714Y-66864571D01*
X140223571Y-66864571D01*
X140009285Y-66936000D01*
X139866428Y-67078857D01*
X139795000Y-67221714D01*
X139723571Y-67507428D01*
X139723571Y-67721714D01*
X139795000Y-68007428D01*
X139866428Y-68150285D01*
X140009285Y-68293142D01*
X140223571Y-68364571D01*
X140580714Y-68364571D01*
X139295000Y-66864571D02*
X138437857Y-66864571D01*
X138866428Y-68364571D02*
X138866428Y-66864571D01*
X136866428Y-67007428D02*
X136795000Y-66936000D01*
X136652142Y-66864571D01*
X136295000Y-66864571D01*
X136152142Y-66936000D01*
X136080714Y-67007428D01*
X136009285Y-67150285D01*
X136009285Y-67293142D01*
X136080714Y-67507428D01*
X136937857Y-68364571D01*
X136009285Y-68364571D01*
X135080714Y-66864571D02*
X134937857Y-66864571D01*
X134795000Y-66936000D01*
X134723571Y-67007428D01*
X134652142Y-67150285D01*
X134580714Y-67436000D01*
X134580714Y-67793142D01*
X134652142Y-68078857D01*
X134723571Y-68221714D01*
X134795000Y-68293142D01*
X134937857Y-68364571D01*
X135080714Y-68364571D01*
X135223571Y-68293142D01*
X135295000Y-68221714D01*
X135366428Y-68078857D01*
X135437857Y-67793142D01*
X135437857Y-67436000D01*
X135366428Y-67150285D01*
X135295000Y-67007428D01*
X135223571Y-66936000D01*
X135080714Y-66864571D01*
X134009285Y-67007428D02*
X133937857Y-66936000D01*
X133795000Y-66864571D01*
X133437857Y-66864571D01*
X133295000Y-66936000D01*
X133223571Y-67007428D01*
X133152142Y-67150285D01*
X133152142Y-67293142D01*
X133223571Y-67507428D01*
X134080714Y-68364571D01*
X133152142Y-68364571D01*
X132580714Y-67007428D02*
X132509285Y-66936000D01*
X132366428Y-66864571D01*
X132009285Y-66864571D01*
X131866428Y-66936000D01*
X131795000Y-67007428D01*
X131723571Y-67150285D01*
X131723571Y-67293142D01*
X131795000Y-67507428D01*
X132652142Y-68364571D01*
X131723571Y-68364571D01*
X142723571Y-70486000D02*
X142009285Y-70486000D01*
X142866428Y-70914571D02*
X142366428Y-69414571D01*
X141866428Y-70914571D01*
X141366428Y-70914571D02*
X141366428Y-69914571D01*
X141366428Y-70200285D02*
X141295000Y-70057428D01*
X141223571Y-69986000D01*
X141080714Y-69914571D01*
X140937857Y-69914571D01*
X140437857Y-70914571D02*
X140437857Y-69914571D01*
X140437857Y-70057428D02*
X140366428Y-69986000D01*
X140223571Y-69914571D01*
X140009285Y-69914571D01*
X139866428Y-69986000D01*
X139795000Y-70128857D01*
X139795000Y-70914571D01*
X139795000Y-70128857D02*
X139723571Y-69986000D01*
X139580714Y-69914571D01*
X139366428Y-69914571D01*
X139223571Y-69986000D01*
X139152142Y-70128857D01*
X139152142Y-70914571D01*
X138437857Y-70914571D02*
X138437857Y-69414571D01*
X137937857Y-70486000D01*
X137437857Y-69414571D01*
X137437857Y-70914571D01*
X136509285Y-70914571D02*
X136652142Y-70843142D01*
X136723571Y-70771714D01*
X136795000Y-70628857D01*
X136795000Y-70200285D01*
X136723571Y-70057428D01*
X136652142Y-69986000D01*
X136509285Y-69914571D01*
X136295000Y-69914571D01*
X136152142Y-69986000D01*
X136080714Y-70057428D01*
X136009285Y-70200285D01*
X136009285Y-70628857D01*
X136080714Y-70771714D01*
X136152142Y-70843142D01*
X136295000Y-70914571D01*
X136509285Y-70914571D01*
X135580714Y-69914571D02*
X135009285Y-69914571D01*
X135366428Y-69414571D02*
X135366428Y-70700285D01*
X135295000Y-70843142D01*
X135152142Y-70914571D01*
X135009285Y-70914571D01*
X134295000Y-70914571D02*
X134437857Y-70843142D01*
X134509285Y-70771714D01*
X134580714Y-70628857D01*
X134580714Y-70200285D01*
X134509285Y-70057428D01*
X134437857Y-69986000D01*
X134295000Y-69914571D01*
X134080714Y-69914571D01*
X133937857Y-69986000D01*
X133866428Y-70057428D01*
X133795000Y-70200285D01*
X133795000Y-70628857D01*
X133866428Y-70771714D01*
X133937857Y-70843142D01*
X134080714Y-70914571D01*
X134295000Y-70914571D01*
X133152142Y-70914571D02*
X133152142Y-69914571D01*
X133152142Y-70200285D02*
X133080714Y-70057428D01*
X133009285Y-69986000D01*
X132866428Y-69914571D01*
X132723571Y-69914571D01*
D13*
X132557761Y-70714809D02*
X132267476Y-70714809D01*
X132412619Y-71222809D02*
X132412619Y-70714809D01*
X131856238Y-71222809D02*
X132098142Y-71222809D01*
X132098142Y-70714809D01*
M02*
