%TF.GenerationSoftware,KiCad,Pcbnew,(5.1.10)-1*%
%TF.CreationDate,2022-03-13T21:43:14-05:00*%
%TF.ProjectId,ArmMotorPCB,41726d4d-6f74-46f7-9250-43422e6b6963,rev?*%
%TF.SameCoordinates,Original*%
%TF.FileFunction,Legend,Top*%
%TF.FilePolarity,Positive*%
%FSLAX46Y46*%
G04 Gerber Fmt 4.6, Leading zero omitted, Abs format (unit mm)*
G04 Created by KiCad (PCBNEW (5.1.10)-1) date 2022-03-13 21:43:14*
%MOMM*%
%LPD*%
G01*
G04 APERTURE LIST*
%ADD10C,0.120000*%
%ADD11C,0.254000*%
%ADD12C,0.127000*%
%ADD13C,0.300000*%
%ADD14C,0.150000*%
G04 APERTURE END LIST*
D10*
X137795000Y-63500000D02*
X137795000Y-64135000D01*
X137160000Y-63500000D02*
X137668000Y-63500000D01*
X137795000Y-63500000D02*
X137160000Y-63500000D01*
X137795000Y-62865000D02*
X137795000Y-63500000D01*
X137795000Y-63500000D02*
X137795000Y-62865000D01*
X138430000Y-63500000D02*
X137795000Y-63500000D01*
X137795000Y-63500000D02*
X138430000Y-63500000D01*
D11*
X129711496Y-60678078D02*
G75*
G02*
X145795999Y-60452000I8083504J-2821922D01*
G01*
D12*
X143032238Y-70714809D02*
X143322523Y-70714809D01*
X143177380Y-71222809D02*
X143177380Y-70714809D01*
X143733761Y-71222809D02*
X143491857Y-71222809D01*
X143491857Y-70714809D01*
D13*
X131795000Y-68364571D02*
X131795000Y-66864571D01*
X132295000Y-67936000D01*
X132795000Y-66864571D01*
X132795000Y-68364571D01*
X134366428Y-68364571D02*
X133866428Y-67650285D01*
X133509285Y-68364571D02*
X133509285Y-66864571D01*
X134080714Y-66864571D01*
X134223571Y-66936000D01*
X134295000Y-67007428D01*
X134366428Y-67150285D01*
X134366428Y-67364571D01*
X134295000Y-67507428D01*
X134223571Y-67578857D01*
X134080714Y-67650285D01*
X133509285Y-67650285D01*
X135009285Y-68364571D02*
X135009285Y-66864571D01*
X135366428Y-66864571D01*
X135580714Y-66936000D01*
X135723571Y-67078857D01*
X135795000Y-67221714D01*
X135866428Y-67507428D01*
X135866428Y-67721714D01*
X135795000Y-68007428D01*
X135723571Y-68150285D01*
X135580714Y-68293142D01*
X135366428Y-68364571D01*
X135009285Y-68364571D01*
X136295000Y-66864571D02*
X137152142Y-66864571D01*
X136723571Y-68364571D02*
X136723571Y-66864571D01*
X138723571Y-67007428D02*
X138795000Y-66936000D01*
X138937857Y-66864571D01*
X139295000Y-66864571D01*
X139437857Y-66936000D01*
X139509285Y-67007428D01*
X139580714Y-67150285D01*
X139580714Y-67293142D01*
X139509285Y-67507428D01*
X138652142Y-68364571D01*
X139580714Y-68364571D01*
X140509285Y-66864571D02*
X140652142Y-66864571D01*
X140795000Y-66936000D01*
X140866428Y-67007428D01*
X140937857Y-67150285D01*
X141009285Y-67436000D01*
X141009285Y-67793142D01*
X140937857Y-68078857D01*
X140866428Y-68221714D01*
X140795000Y-68293142D01*
X140652142Y-68364571D01*
X140509285Y-68364571D01*
X140366428Y-68293142D01*
X140295000Y-68221714D01*
X140223571Y-68078857D01*
X140152142Y-67793142D01*
X140152142Y-67436000D01*
X140223571Y-67150285D01*
X140295000Y-67007428D01*
X140366428Y-66936000D01*
X140509285Y-66864571D01*
X141580714Y-67007428D02*
X141652142Y-66936000D01*
X141795000Y-66864571D01*
X142152142Y-66864571D01*
X142295000Y-66936000D01*
X142366428Y-67007428D01*
X142437857Y-67150285D01*
X142437857Y-67293142D01*
X142366428Y-67507428D01*
X141509285Y-68364571D01*
X142437857Y-68364571D01*
X143009285Y-67007428D02*
X143080714Y-66936000D01*
X143223571Y-66864571D01*
X143580714Y-66864571D01*
X143723571Y-66936000D01*
X143795000Y-67007428D01*
X143866428Y-67150285D01*
X143866428Y-67293142D01*
X143795000Y-67507428D01*
X142937857Y-68364571D01*
X143866428Y-68364571D01*
X132866428Y-70486000D02*
X133580714Y-70486000D01*
X132723571Y-70914571D02*
X133223571Y-69414571D01*
X133723571Y-70914571D01*
X134223571Y-70914571D02*
X134223571Y-69914571D01*
X134223571Y-70200285D02*
X134295000Y-70057428D01*
X134366428Y-69986000D01*
X134509285Y-69914571D01*
X134652142Y-69914571D01*
X135152142Y-70914571D02*
X135152142Y-69914571D01*
X135152142Y-70057428D02*
X135223571Y-69986000D01*
X135366428Y-69914571D01*
X135580714Y-69914571D01*
X135723571Y-69986000D01*
X135795000Y-70128857D01*
X135795000Y-70914571D01*
X135795000Y-70128857D02*
X135866428Y-69986000D01*
X136009285Y-69914571D01*
X136223571Y-69914571D01*
X136366428Y-69986000D01*
X136437857Y-70128857D01*
X136437857Y-70914571D01*
X137152142Y-70914571D02*
X137152142Y-69414571D01*
X137652142Y-70486000D01*
X138152142Y-69414571D01*
X138152142Y-70914571D01*
X139080714Y-70914571D02*
X138937857Y-70843142D01*
X138866428Y-70771714D01*
X138795000Y-70628857D01*
X138795000Y-70200285D01*
X138866428Y-70057428D01*
X138937857Y-69986000D01*
X139080714Y-69914571D01*
X139295000Y-69914571D01*
X139437857Y-69986000D01*
X139509285Y-70057428D01*
X139580714Y-70200285D01*
X139580714Y-70628857D01*
X139509285Y-70771714D01*
X139437857Y-70843142D01*
X139295000Y-70914571D01*
X139080714Y-70914571D01*
X140009285Y-69914571D02*
X140580714Y-69914571D01*
X140223571Y-69414571D02*
X140223571Y-70700285D01*
X140295000Y-70843142D01*
X140437857Y-70914571D01*
X140580714Y-70914571D01*
X141295000Y-70914571D02*
X141152142Y-70843142D01*
X141080714Y-70771714D01*
X141009285Y-70628857D01*
X141009285Y-70200285D01*
X141080714Y-70057428D01*
X141152142Y-69986000D01*
X141295000Y-69914571D01*
X141509285Y-69914571D01*
X141652142Y-69986000D01*
X141723571Y-70057428D01*
X141795000Y-70200285D01*
X141795000Y-70628857D01*
X141723571Y-70771714D01*
X141652142Y-70843142D01*
X141509285Y-70914571D01*
X141295000Y-70914571D01*
X142437857Y-70914571D02*
X142437857Y-69914571D01*
X142437857Y-70200285D02*
X142509285Y-70057428D01*
X142580714Y-69986000D01*
X142723571Y-69914571D01*
X142866428Y-69914571D01*
D14*
%TO.C,TP2*%
X112425200Y-67560000D02*
X113644400Y-67560000D01*
X101300000Y-67560000D02*
X110291600Y-67560000D01*
X111358400Y-65274000D02*
X111358400Y-61997400D01*
X113644400Y-67560000D02*
X125938000Y-67560000D01*
X110215400Y-59686000D02*
X108996200Y-59686000D01*
X101300000Y-59686000D02*
X101300000Y-67534600D01*
X125938000Y-67560000D02*
X125938000Y-59686000D01*
X101325400Y-59686000D02*
X109072400Y-59686000D01*
X113619000Y-59686000D02*
X112526800Y-59686000D01*
X111358400Y-60829000D02*
X111358400Y-61997400D01*
X111358400Y-65274000D02*
X111358400Y-66417000D01*
X113644400Y-59686000D02*
X125938000Y-59686000D01*
X111409200Y-66493200D02*
G75*
G03*
X110291600Y-67509200I-50800J-1066800D01*
G01*
X111358400Y-60829000D02*
G75*
G03*
X112501400Y-59686000I0J1143000D01*
G01*
X112425200Y-67560000D02*
G75*
G03*
X111358400Y-66493200I-1066800J0D01*
G01*
X110215400Y-59686000D02*
G75*
G03*
X111358400Y-60829000I1143000J0D01*
G01*
%TO.C,TP1*%
X162910800Y-59440000D02*
X161691600Y-59440000D01*
X174036000Y-59440000D02*
X165044400Y-59440000D01*
X163977600Y-61726000D02*
X163977600Y-65002600D01*
X161691600Y-59440000D02*
X149398000Y-59440000D01*
X165120600Y-67314000D02*
X166339800Y-67314000D01*
X174036000Y-67314000D02*
X174036000Y-59465400D01*
X149398000Y-59440000D02*
X149398000Y-67314000D01*
X174010600Y-67314000D02*
X166263600Y-67314000D01*
X161717000Y-67314000D02*
X162809200Y-67314000D01*
X163977600Y-66171000D02*
X163977600Y-65002600D01*
X163977600Y-61726000D02*
X163977600Y-60583000D01*
X161691600Y-67314000D02*
X149398000Y-67314000D01*
X163926800Y-60506800D02*
G75*
G03*
X165044400Y-59490800I50800J1066800D01*
G01*
X163977600Y-66171000D02*
G75*
G03*
X162834600Y-67314000I0J-1143000D01*
G01*
X162910800Y-59440000D02*
G75*
G03*
X163977600Y-60506800I1066800J0D01*
G01*
X165120600Y-67314000D02*
G75*
G03*
X163977600Y-66171000I-1143000J0D01*
G01*
%TO.C,Conn1*%
X130490000Y-50700000D02*
X130490000Y-46128000D01*
X129982000Y-44350000D02*
X137882000Y-44350000D01*
X129982000Y-44350000D02*
X129982000Y-52250000D01*
X145782000Y-50700000D02*
X146290000Y-50700000D01*
X137882000Y-44350000D02*
X145782000Y-44350000D01*
X136254000Y-44350000D02*
X136254000Y-43842000D01*
X146290000Y-50700000D02*
X146290000Y-46128000D01*
X138390600Y-46128000D02*
X137882600Y-46128000D01*
X131682000Y-43842000D02*
X131682000Y-44350000D01*
X144131000Y-43842000D02*
X139559000Y-43842000D01*
X146290000Y-46128000D02*
X145782000Y-46128000D01*
X130490000Y-46128000D02*
X129982000Y-46128000D01*
X144131000Y-44350000D02*
X144131000Y-43842000D01*
X137882600Y-50700000D02*
X138390600Y-50700000D01*
X129982000Y-52250000D02*
X137882000Y-52250000D01*
X138390600Y-50700000D02*
X138390600Y-46128000D01*
X145782000Y-44350000D02*
X145782000Y-52250000D01*
X136254000Y-43842000D02*
X131682000Y-43842000D01*
X129982000Y-50700000D02*
X130490000Y-50700000D01*
X137882000Y-52250000D02*
X145782000Y-52250000D01*
X139559000Y-43842000D02*
X139559000Y-44350000D01*
X137882000Y-44350000D02*
X137882000Y-52250000D01*
%TO.C,TP2*%
X122632095Y-67902380D02*
X123203523Y-67902380D01*
X122917809Y-68902380D02*
X122917809Y-67902380D01*
X123536857Y-68902380D02*
X123536857Y-67902380D01*
X123917809Y-67902380D01*
X124013047Y-67950000D01*
X124060666Y-67997619D01*
X124108285Y-68092857D01*
X124108285Y-68235714D01*
X124060666Y-68330952D01*
X124013047Y-68378571D01*
X123917809Y-68426190D01*
X123536857Y-68426190D01*
X124489238Y-67997619D02*
X124536857Y-67950000D01*
X124632095Y-67902380D01*
X124870190Y-67902380D01*
X124965428Y-67950000D01*
X125013047Y-67997619D01*
X125060666Y-68092857D01*
X125060666Y-68188095D01*
X125013047Y-68330952D01*
X124441619Y-68902380D01*
X125060666Y-68902380D01*
%TO.C,TP1*%
X150180095Y-58002380D02*
X150751523Y-58002380D01*
X150465809Y-59002380D02*
X150465809Y-58002380D01*
X151084857Y-59002380D02*
X151084857Y-58002380D01*
X151465809Y-58002380D01*
X151561047Y-58050000D01*
X151608666Y-58097619D01*
X151656285Y-58192857D01*
X151656285Y-58335714D01*
X151608666Y-58430952D01*
X151561047Y-58478571D01*
X151465809Y-58526190D01*
X151084857Y-58526190D01*
X152608666Y-59002380D02*
X152037238Y-59002380D01*
X152322952Y-59002380D02*
X152322952Y-58002380D01*
X152227714Y-58145238D01*
X152132476Y-58240476D01*
X152037238Y-58288095D01*
%TO.C,Conn1*%
X130071190Y-43333142D02*
X130023571Y-43380761D01*
X129880714Y-43428380D01*
X129785476Y-43428380D01*
X129642619Y-43380761D01*
X129547380Y-43285523D01*
X129499761Y-43190285D01*
X129452142Y-42999809D01*
X129452142Y-42856952D01*
X129499761Y-42666476D01*
X129547380Y-42571238D01*
X129642619Y-42476000D01*
X129785476Y-42428380D01*
X129880714Y-42428380D01*
X130023571Y-42476000D01*
X130071190Y-42523619D01*
X130642619Y-43428380D02*
X130547380Y-43380761D01*
X130499761Y-43333142D01*
X130452142Y-43237904D01*
X130452142Y-42952190D01*
X130499761Y-42856952D01*
X130547380Y-42809333D01*
X130642619Y-42761714D01*
X130785476Y-42761714D01*
X130880714Y-42809333D01*
X130928333Y-42856952D01*
X130975952Y-42952190D01*
X130975952Y-43237904D01*
X130928333Y-43333142D01*
X130880714Y-43380761D01*
X130785476Y-43428380D01*
X130642619Y-43428380D01*
X131404523Y-42761714D02*
X131404523Y-43428380D01*
X131404523Y-42856952D02*
X131452142Y-42809333D01*
X131547380Y-42761714D01*
X131690238Y-42761714D01*
X131785476Y-42809333D01*
X131833095Y-42904571D01*
X131833095Y-43428380D01*
X132309285Y-42761714D02*
X132309285Y-43428380D01*
X132309285Y-42856952D02*
X132356904Y-42809333D01*
X132452142Y-42761714D01*
X132595000Y-42761714D01*
X132690238Y-42809333D01*
X132737857Y-42904571D01*
X132737857Y-43428380D01*
X133737857Y-43428380D02*
X133166428Y-43428380D01*
X133452142Y-43428380D02*
X133452142Y-42428380D01*
X133356904Y-42571238D01*
X133261666Y-42666476D01*
X133166428Y-42714095D01*
%TD*%
M02*
