%TF.GenerationSoftware,KiCad,Pcbnew,(5.1.9)-1*%
%TF.CreationDate,2022-03-15T15:55:04-05:00*%
%TF.ProjectId,ArmMotorPCBJ4,41726d4d-6f74-46f7-9250-43424a342e6b,rev?*%
%TF.SameCoordinates,Original*%
%TF.FileFunction,Copper,L1,Top*%
%TF.FilePolarity,Positive*%
%FSLAX46Y46*%
G04 Gerber Fmt 4.6, Leading zero omitted, Abs format (unit mm)*
G04 Created by KiCad (PCBNEW (5.1.9)-1) date 2022-03-15 15:55:04*
%MOMM*%
%LPD*%
G01*
G04 APERTURE LIST*
%TA.AperFunction,ComponentPad*%
%ADD10O,3.000000X5.100000*%
%TD*%
%TA.AperFunction,ComponentPad*%
%ADD11O,5.100000X3.000000*%
%TD*%
%TA.AperFunction,Conductor*%
%ADD12C,0.254000*%
%TD*%
%TA.AperFunction,Conductor*%
%ADD13C,0.100000*%
%TD*%
G04 APERTURE END LIST*
%TO.P,TP1,1*%
%TO.N,Net-(Conn1-Pad2)*%
%TA.AperFunction,ComponentPad*%
G36*
G01*
X138533307Y-73402392D02*
X137048381Y-74887318D01*
G75*
G02*
X134927063Y-74887318I-1060659J1060659D01*
G01*
X134927063Y-74887318D01*
G75*
G02*
X134927063Y-72766000I1060659J1060659D01*
G01*
X136411989Y-71281074D01*
G75*
G02*
X138533307Y-71281074I1060659J-1060659D01*
G01*
X138533307Y-71281074D01*
G75*
G02*
X138533307Y-73402392I-1060659J-1060659D01*
G01*
G37*
%TD.AperFunction*%
%TD*%
%TO.P,TP2,1*%
%TO.N,Net-(Conn1-Pad1)*%
%TA.AperFunction,ComponentPad*%
G36*
G01*
X115506233Y-53693068D02*
X116991159Y-52208142D01*
G75*
G02*
X119112477Y-52208142I1060659J-1060659D01*
G01*
X119112477Y-52208142D01*
G75*
G02*
X119112477Y-54329460I-1060659J-1060659D01*
G01*
X117627551Y-55814386D01*
G75*
G02*
X115506233Y-55814386I-1060659J1060659D01*
G01*
X115506233Y-55814386D01*
G75*
G02*
X115506233Y-53693068I1060659J1060659D01*
G01*
G37*
%TD.AperFunction*%
%TD*%
D10*
%TO.P,TP2,1*%
%TO.N,Net-(Conn1-Pad2)*%
X140609600Y-63377000D03*
%TD*%
%TO.P,TP1,1*%
%TO.N,Net-(Conn1-Pad1)*%
X113390400Y-63623000D03*
%TD*%
D11*
%TO.P,Conn1,2*%
%TO.N,Net-(Conn1-Pad2)*%
X130863000Y-39496000D03*
%TO.P,Conn1,1*%
%TO.N,Net-(Conn1-Pad1)*%
X122963000Y-39496000D03*
%TD*%
D12*
%TO.N,Net-(Conn1-Pad2)*%
X137277869Y-36234722D02*
X137391246Y-36268953D01*
X137495819Y-36324555D01*
X137587596Y-36399407D01*
X137663091Y-36490664D01*
X137719419Y-36594844D01*
X137754440Y-36707976D01*
X137770063Y-36856620D01*
X137801392Y-49907779D01*
X137811175Y-50004720D01*
X137849214Y-50129039D01*
X137910774Y-50243549D01*
X137993492Y-50343848D01*
X138028066Y-50372084D01*
X139221777Y-51476231D01*
X140299078Y-52679771D01*
X141258324Y-53979335D01*
X142091019Y-55363417D01*
X142789765Y-56819719D01*
X143348362Y-58335321D01*
X143761846Y-59896754D01*
X144026552Y-61490176D01*
X144140128Y-63101428D01*
X144101568Y-64716232D01*
X143911212Y-66320240D01*
X143570756Y-67899192D01*
X143083206Y-69439135D01*
X142452912Y-70926330D01*
X141685449Y-72347623D01*
X140787640Y-73690379D01*
X139767455Y-74942681D01*
X138633938Y-76093424D01*
X137397159Y-77132386D01*
X136068098Y-78050342D01*
X134658545Y-78839150D01*
X133181021Y-79491805D01*
X131648625Y-80002519D01*
X130074964Y-80366756D01*
X128474019Y-80581280D01*
X127762000Y-80609032D01*
X127762000Y-36220000D01*
X137127721Y-36220000D01*
X137277869Y-36234722D01*
%TA.AperFunction,Conductor*%
D13*
G36*
X137277869Y-36234722D02*
G01*
X137391246Y-36268953D01*
X137495819Y-36324555D01*
X137587596Y-36399407D01*
X137663091Y-36490664D01*
X137719419Y-36594844D01*
X137754440Y-36707976D01*
X137770063Y-36856620D01*
X137801392Y-49907779D01*
X137811175Y-50004720D01*
X137849214Y-50129039D01*
X137910774Y-50243549D01*
X137993492Y-50343848D01*
X138028066Y-50372084D01*
X139221777Y-51476231D01*
X140299078Y-52679771D01*
X141258324Y-53979335D01*
X142091019Y-55363417D01*
X142789765Y-56819719D01*
X143348362Y-58335321D01*
X143761846Y-59896754D01*
X144026552Y-61490176D01*
X144140128Y-63101428D01*
X144101568Y-64716232D01*
X143911212Y-66320240D01*
X143570756Y-67899192D01*
X143083206Y-69439135D01*
X142452912Y-70926330D01*
X141685449Y-72347623D01*
X140787640Y-73690379D01*
X139767455Y-74942681D01*
X138633938Y-76093424D01*
X137397159Y-77132386D01*
X136068098Y-78050342D01*
X134658545Y-78839150D01*
X133181021Y-79491805D01*
X131648625Y-80002519D01*
X130074964Y-80366756D01*
X128474019Y-80581280D01*
X127762000Y-80609032D01*
X127762000Y-36220000D01*
X137127721Y-36220000D01*
X137277869Y-36234722D01*
G37*
%TD.AperFunction*%
%TD*%
D12*
%TO.N,Net-(Conn1-Pad1)*%
X126238000Y-80609765D02*
X125247197Y-80554927D01*
X123649974Y-80314284D01*
X122082458Y-79924391D01*
X120558616Y-79388720D01*
X119091946Y-78712019D01*
X117695471Y-77900297D01*
X116381568Y-76960748D01*
X115161927Y-75901729D01*
X114047361Y-74732630D01*
X113047761Y-73463829D01*
X112172001Y-72106584D01*
X111427859Y-70672954D01*
X110821933Y-69175647D01*
X110359607Y-67627976D01*
X110044980Y-66043649D01*
X109880848Y-64436749D01*
X109868668Y-62821549D01*
X110008546Y-61212351D01*
X110299243Y-59623461D01*
X110738172Y-58068996D01*
X111321448Y-56562719D01*
X112043885Y-55118026D01*
X112899072Y-53747735D01*
X113879420Y-52464003D01*
X114977808Y-51276519D01*
X116001446Y-50347225D01*
X116038948Y-50316448D01*
X116121425Y-50215950D01*
X116182710Y-50101293D01*
X116220450Y-49976883D01*
X116230000Y-49879919D01*
X116230000Y-36862279D01*
X116244722Y-36712131D01*
X116278953Y-36598754D01*
X116334555Y-36494181D01*
X116409407Y-36402404D01*
X116500664Y-36326909D01*
X116604844Y-36270581D01*
X116717976Y-36235560D01*
X116866022Y-36220000D01*
X126238000Y-36220000D01*
X126238000Y-80609765D01*
%TA.AperFunction,Conductor*%
D13*
G36*
X126238000Y-80609765D02*
G01*
X125247197Y-80554927D01*
X123649974Y-80314284D01*
X122082458Y-79924391D01*
X120558616Y-79388720D01*
X119091946Y-78712019D01*
X117695471Y-77900297D01*
X116381568Y-76960748D01*
X115161927Y-75901729D01*
X114047361Y-74732630D01*
X113047761Y-73463829D01*
X112172001Y-72106584D01*
X111427859Y-70672954D01*
X110821933Y-69175647D01*
X110359607Y-67627976D01*
X110044980Y-66043649D01*
X109880848Y-64436749D01*
X109868668Y-62821549D01*
X110008546Y-61212351D01*
X110299243Y-59623461D01*
X110738172Y-58068996D01*
X111321448Y-56562719D01*
X112043885Y-55118026D01*
X112899072Y-53747735D01*
X113879420Y-52464003D01*
X114977808Y-51276519D01*
X116001446Y-50347225D01*
X116038948Y-50316448D01*
X116121425Y-50215950D01*
X116182710Y-50101293D01*
X116220450Y-49976883D01*
X116230000Y-49879919D01*
X116230000Y-36862279D01*
X116244722Y-36712131D01*
X116278953Y-36598754D01*
X116334555Y-36494181D01*
X116409407Y-36402404D01*
X116500664Y-36326909D01*
X116604844Y-36270581D01*
X116717976Y-36235560D01*
X116866022Y-36220000D01*
X126238000Y-36220000D01*
X126238000Y-80609765D01*
G37*
%TD.AperFunction*%
%TD*%
M02*
