%TF.GenerationSoftware,KiCad,Pcbnew,(5.1.10)-1*%
%TF.CreationDate,2022-03-13T21:33:56-05:00*%
%TF.ProjectId,SciMotorPCB,5363694d-6f74-46f7-9250-43422e6b6963,rev?*%
%TF.SameCoordinates,Original*%
%TF.FileFunction,Legend,Bot*%
%TF.FilePolarity,Positive*%
%FSLAX46Y46*%
G04 Gerber Fmt 4.6, Leading zero omitted, Abs format (unit mm)*
G04 Created by KiCad (PCBNEW (5.1.10)-1) date 2022-03-13 21:33:56*
%MOMM*%
%LPD*%
G01*
G04 APERTURE LIST*
%ADD10C,0.076200*%
%ADD11C,0.300000*%
%ADD12C,0.150000*%
G04 APERTURE END LIST*
D10*
X149663452Y-107602261D02*
X149300595Y-107602261D01*
X149482023Y-108237261D02*
X149482023Y-107602261D01*
X148786547Y-108237261D02*
X149088928Y-108237261D01*
X149088928Y-107602261D01*
D11*
X162845000Y-106088571D02*
X162845000Y-104588571D01*
X162345000Y-105660000D01*
X161845000Y-104588571D01*
X161845000Y-106088571D01*
X160273571Y-106088571D02*
X160773571Y-105374285D01*
X161130714Y-106088571D02*
X161130714Y-104588571D01*
X160559285Y-104588571D01*
X160416428Y-104660000D01*
X160345000Y-104731428D01*
X160273571Y-104874285D01*
X160273571Y-105088571D01*
X160345000Y-105231428D01*
X160416428Y-105302857D01*
X160559285Y-105374285D01*
X161130714Y-105374285D01*
X159630714Y-106088571D02*
X159630714Y-104588571D01*
X159273571Y-104588571D01*
X159059285Y-104660000D01*
X158916428Y-104802857D01*
X158845000Y-104945714D01*
X158773571Y-105231428D01*
X158773571Y-105445714D01*
X158845000Y-105731428D01*
X158916428Y-105874285D01*
X159059285Y-106017142D01*
X159273571Y-106088571D01*
X159630714Y-106088571D01*
X158345000Y-104588571D02*
X157487857Y-104588571D01*
X157916428Y-106088571D02*
X157916428Y-104588571D01*
X155916428Y-104731428D02*
X155845000Y-104660000D01*
X155702142Y-104588571D01*
X155345000Y-104588571D01*
X155202142Y-104660000D01*
X155130714Y-104731428D01*
X155059285Y-104874285D01*
X155059285Y-105017142D01*
X155130714Y-105231428D01*
X155987857Y-106088571D01*
X155059285Y-106088571D01*
X154130714Y-104588571D02*
X153987857Y-104588571D01*
X153845000Y-104660000D01*
X153773571Y-104731428D01*
X153702142Y-104874285D01*
X153630714Y-105160000D01*
X153630714Y-105517142D01*
X153702142Y-105802857D01*
X153773571Y-105945714D01*
X153845000Y-106017142D01*
X153987857Y-106088571D01*
X154130714Y-106088571D01*
X154273571Y-106017142D01*
X154345000Y-105945714D01*
X154416428Y-105802857D01*
X154487857Y-105517142D01*
X154487857Y-105160000D01*
X154416428Y-104874285D01*
X154345000Y-104731428D01*
X154273571Y-104660000D01*
X154130714Y-104588571D01*
X153059285Y-104731428D02*
X152987857Y-104660000D01*
X152845000Y-104588571D01*
X152487857Y-104588571D01*
X152345000Y-104660000D01*
X152273571Y-104731428D01*
X152202142Y-104874285D01*
X152202142Y-105017142D01*
X152273571Y-105231428D01*
X153130714Y-106088571D01*
X152202142Y-106088571D01*
X151630714Y-104731428D02*
X151559285Y-104660000D01*
X151416428Y-104588571D01*
X151059285Y-104588571D01*
X150916428Y-104660000D01*
X150845000Y-104731428D01*
X150773571Y-104874285D01*
X150773571Y-105017142D01*
X150845000Y-105231428D01*
X151702142Y-106088571D01*
X150773571Y-106088571D01*
X163630714Y-107922142D02*
X163416428Y-107993571D01*
X163059285Y-107993571D01*
X162916428Y-107922142D01*
X162845000Y-107850714D01*
X162773571Y-107707857D01*
X162773571Y-107565000D01*
X162845000Y-107422142D01*
X162916428Y-107350714D01*
X163059285Y-107279285D01*
X163345000Y-107207857D01*
X163487857Y-107136428D01*
X163559285Y-107065000D01*
X163630714Y-106922142D01*
X163630714Y-106779285D01*
X163559285Y-106636428D01*
X163487857Y-106565000D01*
X163345000Y-106493571D01*
X162987857Y-106493571D01*
X162773571Y-106565000D01*
X161487857Y-107922142D02*
X161630714Y-107993571D01*
X161916428Y-107993571D01*
X162059285Y-107922142D01*
X162130714Y-107850714D01*
X162202142Y-107707857D01*
X162202142Y-107279285D01*
X162130714Y-107136428D01*
X162059285Y-107065000D01*
X161916428Y-106993571D01*
X161630714Y-106993571D01*
X161487857Y-107065000D01*
X160845000Y-107993571D02*
X160845000Y-106993571D01*
X160845000Y-106493571D02*
X160916428Y-106565000D01*
X160845000Y-106636428D01*
X160773571Y-106565000D01*
X160845000Y-106493571D01*
X160845000Y-106636428D01*
X160130714Y-107993571D02*
X160130714Y-106493571D01*
X159630714Y-107565000D01*
X159130714Y-106493571D01*
X159130714Y-107993571D01*
X158202142Y-107993571D02*
X158345000Y-107922142D01*
X158416428Y-107850714D01*
X158487857Y-107707857D01*
X158487857Y-107279285D01*
X158416428Y-107136428D01*
X158345000Y-107065000D01*
X158202142Y-106993571D01*
X157987857Y-106993571D01*
X157845000Y-107065000D01*
X157773571Y-107136428D01*
X157702142Y-107279285D01*
X157702142Y-107707857D01*
X157773571Y-107850714D01*
X157845000Y-107922142D01*
X157987857Y-107993571D01*
X158202142Y-107993571D01*
X157273571Y-106993571D02*
X156702142Y-106993571D01*
X157059285Y-106493571D02*
X157059285Y-107779285D01*
X156987857Y-107922142D01*
X156845000Y-107993571D01*
X156702142Y-107993571D01*
X155987857Y-107993571D02*
X156130714Y-107922142D01*
X156202142Y-107850714D01*
X156273571Y-107707857D01*
X156273571Y-107279285D01*
X156202142Y-107136428D01*
X156130714Y-107065000D01*
X155987857Y-106993571D01*
X155773571Y-106993571D01*
X155630714Y-107065000D01*
X155559285Y-107136428D01*
X155487857Y-107279285D01*
X155487857Y-107707857D01*
X155559285Y-107850714D01*
X155630714Y-107922142D01*
X155773571Y-107993571D01*
X155987857Y-107993571D01*
X154845000Y-107993571D02*
X154845000Y-106993571D01*
X154845000Y-107279285D02*
X154773571Y-107136428D01*
X154702142Y-107065000D01*
X154559285Y-106993571D01*
X154416428Y-106993571D01*
X153916428Y-107993571D02*
X153916428Y-106493571D01*
X153345000Y-106493571D01*
X153202142Y-106565000D01*
X153130714Y-106636428D01*
X153059285Y-106779285D01*
X153059285Y-106993571D01*
X153130714Y-107136428D01*
X153202142Y-107207857D01*
X153345000Y-107279285D01*
X153916428Y-107279285D01*
X151559285Y-107850714D02*
X151630714Y-107922142D01*
X151845000Y-107993571D01*
X151987857Y-107993571D01*
X152202142Y-107922142D01*
X152345000Y-107779285D01*
X152416428Y-107636428D01*
X152487857Y-107350714D01*
X152487857Y-107136428D01*
X152416428Y-106850714D01*
X152345000Y-106707857D01*
X152202142Y-106565000D01*
X151987857Y-106493571D01*
X151845000Y-106493571D01*
X151630714Y-106565000D01*
X151559285Y-106636428D01*
X150416428Y-107207857D02*
X150202142Y-107279285D01*
X150130714Y-107350714D01*
X150059285Y-107493571D01*
X150059285Y-107707857D01*
X150130714Y-107850714D01*
X150202142Y-107922142D01*
X150345000Y-107993571D01*
X150916428Y-107993571D01*
X150916428Y-106493571D01*
X150416428Y-106493571D01*
X150273571Y-106565000D01*
X150202142Y-106636428D01*
X150130714Y-106779285D01*
X150130714Y-106922142D01*
X150202142Y-107065000D01*
X150273571Y-107136428D01*
X150416428Y-107207857D01*
X150916428Y-107207857D01*
D12*
X173990000Y-95885000D02*
G75*
G03*
X173990000Y-95885000I-17145000J0D01*
G01*
%TO.C,Conn1*%
X156758000Y-70639000D02*
X156758000Y-78539000D01*
X155081000Y-70131000D02*
X155081000Y-70639000D01*
X156758000Y-78539000D02*
X148858000Y-78539000D01*
X164658000Y-76989000D02*
X164150000Y-76989000D01*
X158386000Y-70131000D02*
X162958000Y-70131000D01*
X148858000Y-70639000D02*
X148858000Y-78539000D01*
X156249400Y-76989000D02*
X156249400Y-72417000D01*
X164658000Y-78539000D02*
X156758000Y-78539000D01*
X156757400Y-76989000D02*
X156249400Y-76989000D01*
X150509000Y-70639000D02*
X150509000Y-70131000D01*
X164150000Y-72417000D02*
X164658000Y-72417000D01*
X148350000Y-72417000D02*
X148858000Y-72417000D01*
X150509000Y-70131000D02*
X155081000Y-70131000D01*
X162958000Y-70131000D02*
X162958000Y-70639000D01*
X156249400Y-72417000D02*
X156757400Y-72417000D01*
X148350000Y-76989000D02*
X148350000Y-72417000D01*
X158386000Y-70639000D02*
X158386000Y-70131000D01*
X156758000Y-70639000D02*
X148858000Y-70639000D01*
X148858000Y-76989000D02*
X148350000Y-76989000D01*
X164658000Y-70639000D02*
X164658000Y-78539000D01*
X164658000Y-70639000D02*
X156758000Y-70639000D01*
X164150000Y-76989000D02*
X164150000Y-72417000D01*
X164568809Y-69622142D02*
X164616428Y-69669761D01*
X164759285Y-69717380D01*
X164854523Y-69717380D01*
X164997380Y-69669761D01*
X165092619Y-69574523D01*
X165140238Y-69479285D01*
X165187857Y-69288809D01*
X165187857Y-69145952D01*
X165140238Y-68955476D01*
X165092619Y-68860238D01*
X164997380Y-68765000D01*
X164854523Y-68717380D01*
X164759285Y-68717380D01*
X164616428Y-68765000D01*
X164568809Y-68812619D01*
X163997380Y-69717380D02*
X164092619Y-69669761D01*
X164140238Y-69622142D01*
X164187857Y-69526904D01*
X164187857Y-69241190D01*
X164140238Y-69145952D01*
X164092619Y-69098333D01*
X163997380Y-69050714D01*
X163854523Y-69050714D01*
X163759285Y-69098333D01*
X163711666Y-69145952D01*
X163664047Y-69241190D01*
X163664047Y-69526904D01*
X163711666Y-69622142D01*
X163759285Y-69669761D01*
X163854523Y-69717380D01*
X163997380Y-69717380D01*
X163235476Y-69050714D02*
X163235476Y-69717380D01*
X163235476Y-69145952D02*
X163187857Y-69098333D01*
X163092619Y-69050714D01*
X162949761Y-69050714D01*
X162854523Y-69098333D01*
X162806904Y-69193571D01*
X162806904Y-69717380D01*
X162330714Y-69050714D02*
X162330714Y-69717380D01*
X162330714Y-69145952D02*
X162283095Y-69098333D01*
X162187857Y-69050714D01*
X162045000Y-69050714D01*
X161949761Y-69098333D01*
X161902142Y-69193571D01*
X161902142Y-69717380D01*
X160902142Y-69717380D02*
X161473571Y-69717380D01*
X161187857Y-69717380D02*
X161187857Y-68717380D01*
X161283095Y-68860238D01*
X161378333Y-68955476D01*
X161473571Y-69003095D01*
%TD*%
M02*
