%TF.GenerationSoftware,KiCad,Pcbnew,(5.1.10)-1*%
%TF.CreationDate,2022-03-13T21:33:56-05:00*%
%TF.ProjectId,SciMotorPCB,5363694d-6f74-46f7-9250-43422e6b6963,rev?*%
%TF.SameCoordinates,Original*%
%TF.FileFunction,Legend,Top*%
%TF.FilePolarity,Positive*%
%FSLAX46Y46*%
G04 Gerber Fmt 4.6, Leading zero omitted, Abs format (unit mm)*
G04 Created by KiCad (PCBNEW (5.1.10)-1) date 2022-03-13 21:33:56*
%MOMM*%
%LPD*%
G01*
G04 APERTURE LIST*
%ADD10C,0.076200*%
%ADD11C,0.300000*%
%ADD12C,0.150000*%
G04 APERTURE END LIST*
D10*
X164026547Y-107602261D02*
X164389404Y-107602261D01*
X164207976Y-108237261D02*
X164207976Y-107602261D01*
X164903452Y-108237261D02*
X164601071Y-108237261D01*
X164601071Y-107602261D01*
D11*
X150059285Y-107922142D02*
X150273571Y-107993571D01*
X150630714Y-107993571D01*
X150773571Y-107922142D01*
X150845000Y-107850714D01*
X150916428Y-107707857D01*
X150916428Y-107565000D01*
X150845000Y-107422142D01*
X150773571Y-107350714D01*
X150630714Y-107279285D01*
X150345000Y-107207857D01*
X150202142Y-107136428D01*
X150130714Y-107065000D01*
X150059285Y-106922142D01*
X150059285Y-106779285D01*
X150130714Y-106636428D01*
X150202142Y-106565000D01*
X150345000Y-106493571D01*
X150702142Y-106493571D01*
X150916428Y-106565000D01*
X152202142Y-107922142D02*
X152059285Y-107993571D01*
X151773571Y-107993571D01*
X151630714Y-107922142D01*
X151559285Y-107850714D01*
X151487857Y-107707857D01*
X151487857Y-107279285D01*
X151559285Y-107136428D01*
X151630714Y-107065000D01*
X151773571Y-106993571D01*
X152059285Y-106993571D01*
X152202142Y-107065000D01*
X152845000Y-107993571D02*
X152845000Y-106993571D01*
X152845000Y-106493571D02*
X152773571Y-106565000D01*
X152845000Y-106636428D01*
X152916428Y-106565000D01*
X152845000Y-106493571D01*
X152845000Y-106636428D01*
X153559285Y-107993571D02*
X153559285Y-106493571D01*
X154059285Y-107565000D01*
X154559285Y-106493571D01*
X154559285Y-107993571D01*
X155487857Y-107993571D02*
X155345000Y-107922142D01*
X155273571Y-107850714D01*
X155202142Y-107707857D01*
X155202142Y-107279285D01*
X155273571Y-107136428D01*
X155345000Y-107065000D01*
X155487857Y-106993571D01*
X155702142Y-106993571D01*
X155845000Y-107065000D01*
X155916428Y-107136428D01*
X155987857Y-107279285D01*
X155987857Y-107707857D01*
X155916428Y-107850714D01*
X155845000Y-107922142D01*
X155702142Y-107993571D01*
X155487857Y-107993571D01*
X156416428Y-106993571D02*
X156987857Y-106993571D01*
X156630714Y-106493571D02*
X156630714Y-107779285D01*
X156702142Y-107922142D01*
X156845000Y-107993571D01*
X156987857Y-107993571D01*
X157702142Y-107993571D02*
X157559285Y-107922142D01*
X157487857Y-107850714D01*
X157416428Y-107707857D01*
X157416428Y-107279285D01*
X157487857Y-107136428D01*
X157559285Y-107065000D01*
X157702142Y-106993571D01*
X157916428Y-106993571D01*
X158059285Y-107065000D01*
X158130714Y-107136428D01*
X158202142Y-107279285D01*
X158202142Y-107707857D01*
X158130714Y-107850714D01*
X158059285Y-107922142D01*
X157916428Y-107993571D01*
X157702142Y-107993571D01*
X158845000Y-107993571D02*
X158845000Y-106993571D01*
X158845000Y-107279285D02*
X158916428Y-107136428D01*
X158987857Y-107065000D01*
X159130714Y-106993571D01*
X159273571Y-106993571D01*
X159773571Y-107993571D02*
X159773571Y-106493571D01*
X160345000Y-106493571D01*
X160487857Y-106565000D01*
X160559285Y-106636428D01*
X160630714Y-106779285D01*
X160630714Y-106993571D01*
X160559285Y-107136428D01*
X160487857Y-107207857D01*
X160345000Y-107279285D01*
X159773571Y-107279285D01*
X162130714Y-107850714D02*
X162059285Y-107922142D01*
X161845000Y-107993571D01*
X161702142Y-107993571D01*
X161487857Y-107922142D01*
X161345000Y-107779285D01*
X161273571Y-107636428D01*
X161202142Y-107350714D01*
X161202142Y-107136428D01*
X161273571Y-106850714D01*
X161345000Y-106707857D01*
X161487857Y-106565000D01*
X161702142Y-106493571D01*
X161845000Y-106493571D01*
X162059285Y-106565000D01*
X162130714Y-106636428D01*
X163273571Y-107207857D02*
X163487857Y-107279285D01*
X163559285Y-107350714D01*
X163630714Y-107493571D01*
X163630714Y-107707857D01*
X163559285Y-107850714D01*
X163487857Y-107922142D01*
X163345000Y-107993571D01*
X162773571Y-107993571D01*
X162773571Y-106493571D01*
X163273571Y-106493571D01*
X163416428Y-106565000D01*
X163487857Y-106636428D01*
X163559285Y-106779285D01*
X163559285Y-106922142D01*
X163487857Y-107065000D01*
X163416428Y-107136428D01*
X163273571Y-107207857D01*
X162773571Y-107207857D01*
X150845000Y-106088571D02*
X150845000Y-104588571D01*
X151345000Y-105660000D01*
X151845000Y-104588571D01*
X151845000Y-106088571D01*
X153416428Y-106088571D02*
X152916428Y-105374285D01*
X152559285Y-106088571D02*
X152559285Y-104588571D01*
X153130714Y-104588571D01*
X153273571Y-104660000D01*
X153345000Y-104731428D01*
X153416428Y-104874285D01*
X153416428Y-105088571D01*
X153345000Y-105231428D01*
X153273571Y-105302857D01*
X153130714Y-105374285D01*
X152559285Y-105374285D01*
X154059285Y-106088571D02*
X154059285Y-104588571D01*
X154416428Y-104588571D01*
X154630714Y-104660000D01*
X154773571Y-104802857D01*
X154845000Y-104945714D01*
X154916428Y-105231428D01*
X154916428Y-105445714D01*
X154845000Y-105731428D01*
X154773571Y-105874285D01*
X154630714Y-106017142D01*
X154416428Y-106088571D01*
X154059285Y-106088571D01*
X155345000Y-104588571D02*
X156202142Y-104588571D01*
X155773571Y-106088571D02*
X155773571Y-104588571D01*
X157773571Y-104731428D02*
X157845000Y-104660000D01*
X157987857Y-104588571D01*
X158345000Y-104588571D01*
X158487857Y-104660000D01*
X158559285Y-104731428D01*
X158630714Y-104874285D01*
X158630714Y-105017142D01*
X158559285Y-105231428D01*
X157702142Y-106088571D01*
X158630714Y-106088571D01*
X159559285Y-104588571D02*
X159702142Y-104588571D01*
X159845000Y-104660000D01*
X159916428Y-104731428D01*
X159987857Y-104874285D01*
X160059285Y-105160000D01*
X160059285Y-105517142D01*
X159987857Y-105802857D01*
X159916428Y-105945714D01*
X159845000Y-106017142D01*
X159702142Y-106088571D01*
X159559285Y-106088571D01*
X159416428Y-106017142D01*
X159345000Y-105945714D01*
X159273571Y-105802857D01*
X159202142Y-105517142D01*
X159202142Y-105160000D01*
X159273571Y-104874285D01*
X159345000Y-104731428D01*
X159416428Y-104660000D01*
X159559285Y-104588571D01*
X160630714Y-104731428D02*
X160702142Y-104660000D01*
X160845000Y-104588571D01*
X161202142Y-104588571D01*
X161345000Y-104660000D01*
X161416428Y-104731428D01*
X161487857Y-104874285D01*
X161487857Y-105017142D01*
X161416428Y-105231428D01*
X160559285Y-106088571D01*
X161487857Y-106088571D01*
X162059285Y-104731428D02*
X162130714Y-104660000D01*
X162273571Y-104588571D01*
X162630714Y-104588571D01*
X162773571Y-104660000D01*
X162845000Y-104731428D01*
X162916428Y-104874285D01*
X162916428Y-105017142D01*
X162845000Y-105231428D01*
X161987857Y-106088571D01*
X162916428Y-106088571D01*
D12*
%TO.C,J1*%
X129222500Y-91973400D02*
X141516100Y-91973400D01*
X126936500Y-97561400D02*
X126936500Y-98704400D01*
X126936500Y-93116400D02*
X126936500Y-94284800D01*
X129197100Y-91973400D02*
X128104900Y-91973400D01*
X116903500Y-91973400D02*
X124650500Y-91973400D01*
X141516100Y-99847400D02*
X141516100Y-91973400D01*
X116878100Y-91973400D02*
X116878100Y-99822000D01*
X125793500Y-91973400D02*
X124574300Y-91973400D01*
X129222500Y-99847400D02*
X141516100Y-99847400D01*
X126936500Y-97561400D02*
X126936500Y-94284800D01*
X116878100Y-99847400D02*
X125869700Y-99847400D01*
X128003300Y-99847400D02*
X129222500Y-99847400D01*
X126987300Y-98780600D02*
G75*
G03*
X125869700Y-99796600I-50800J-1066800D01*
G01*
X126936500Y-93116400D02*
G75*
G03*
X128079500Y-91973400I0J1143000D01*
G01*
X128003300Y-99847400D02*
G75*
G03*
X126936500Y-98780600I-1066800J0D01*
G01*
X125793500Y-91973400D02*
G75*
G03*
X126936500Y-93116400I1143000J0D01*
G01*
%TO.C,J2*%
X184467500Y-99847400D02*
X172173900Y-99847400D01*
X186753500Y-94259400D02*
X186753500Y-93116400D01*
X186753500Y-98704400D02*
X186753500Y-97536000D01*
X184492900Y-99847400D02*
X185585100Y-99847400D01*
X196786500Y-99847400D02*
X189039500Y-99847400D01*
X172173900Y-91973400D02*
X172173900Y-99847400D01*
X196811900Y-99847400D02*
X196811900Y-91998800D01*
X187896500Y-99847400D02*
X189115700Y-99847400D01*
X184467500Y-91973400D02*
X172173900Y-91973400D01*
X186753500Y-94259400D02*
X186753500Y-97536000D01*
X196811900Y-91973400D02*
X187820300Y-91973400D01*
X185686700Y-91973400D02*
X184467500Y-91973400D01*
X186702700Y-93040200D02*
G75*
G03*
X187820300Y-92024200I50800J1066800D01*
G01*
X186753500Y-98704400D02*
G75*
G03*
X185610500Y-99847400I0J-1143000D01*
G01*
X185686700Y-91973400D02*
G75*
G03*
X186753500Y-93040200I1066800J0D01*
G01*
X187896500Y-99847400D02*
G75*
G03*
X186753500Y-98704400I-1143000J0D01*
G01*
%TO.C,J1*%
X139138766Y-100189780D02*
X139138766Y-100904066D01*
X139091147Y-101046923D01*
X138995909Y-101142161D01*
X138853052Y-101189780D01*
X138757814Y-101189780D01*
X140138766Y-101189780D02*
X139567338Y-101189780D01*
X139853052Y-101189780D02*
X139853052Y-100189780D01*
X139757814Y-100332638D01*
X139662576Y-100427876D01*
X139567338Y-100475495D01*
%TO.C,J2*%
X173884566Y-90535780D02*
X173884566Y-91250066D01*
X173836947Y-91392923D01*
X173741709Y-91488161D01*
X173598852Y-91535780D01*
X173503614Y-91535780D01*
X174313138Y-90631019D02*
X174360757Y-90583400D01*
X174455995Y-90535780D01*
X174694090Y-90535780D01*
X174789328Y-90583400D01*
X174836947Y-90631019D01*
X174884566Y-90726257D01*
X174884566Y-90821495D01*
X174836947Y-90964352D01*
X174265519Y-91535780D01*
X174884566Y-91535780D01*
%TD*%
M02*
