%TF.GenerationSoftware,KiCad,Pcbnew,(5.1.9)-1*%
%TF.CreationDate,2022-03-15T15:37:10-05:00*%
%TF.ProjectId,SciMotorPCB,5363694d-6f74-46f7-9250-43422e6b6963,rev?*%
%TF.SameCoordinates,Original*%
%TF.FileFunction,Legend,Bot*%
%TF.FilePolarity,Positive*%
%FSLAX46Y46*%
G04 Gerber Fmt 4.6, Leading zero omitted, Abs format (unit mm)*
G04 Created by KiCad (PCBNEW (5.1.9)-1) date 2022-03-15 15:37:10*
%MOMM*%
%LPD*%
G01*
G04 APERTURE LIST*
%ADD10C,0.300000*%
%ADD11C,0.076200*%
%ADD12C,0.150000*%
G04 APERTURE END LIST*
D10*
X162845000Y-95928571D02*
X162845000Y-94428571D01*
X162345000Y-95500000D01*
X161845000Y-94428571D01*
X161845000Y-95928571D01*
X160273571Y-95928571D02*
X160773571Y-95214285D01*
X161130714Y-95928571D02*
X161130714Y-94428571D01*
X160559285Y-94428571D01*
X160416428Y-94500000D01*
X160345000Y-94571428D01*
X160273571Y-94714285D01*
X160273571Y-94928571D01*
X160345000Y-95071428D01*
X160416428Y-95142857D01*
X160559285Y-95214285D01*
X161130714Y-95214285D01*
X159630714Y-95928571D02*
X159630714Y-94428571D01*
X159273571Y-94428571D01*
X159059285Y-94500000D01*
X158916428Y-94642857D01*
X158845000Y-94785714D01*
X158773571Y-95071428D01*
X158773571Y-95285714D01*
X158845000Y-95571428D01*
X158916428Y-95714285D01*
X159059285Y-95857142D01*
X159273571Y-95928571D01*
X159630714Y-95928571D01*
X158345000Y-94428571D02*
X157487857Y-94428571D01*
X157916428Y-95928571D02*
X157916428Y-94428571D01*
X155916428Y-94571428D02*
X155845000Y-94500000D01*
X155702142Y-94428571D01*
X155345000Y-94428571D01*
X155202142Y-94500000D01*
X155130714Y-94571428D01*
X155059285Y-94714285D01*
X155059285Y-94857142D01*
X155130714Y-95071428D01*
X155987857Y-95928571D01*
X155059285Y-95928571D01*
X154130714Y-94428571D02*
X153987857Y-94428571D01*
X153845000Y-94500000D01*
X153773571Y-94571428D01*
X153702142Y-94714285D01*
X153630714Y-95000000D01*
X153630714Y-95357142D01*
X153702142Y-95642857D01*
X153773571Y-95785714D01*
X153845000Y-95857142D01*
X153987857Y-95928571D01*
X154130714Y-95928571D01*
X154273571Y-95857142D01*
X154345000Y-95785714D01*
X154416428Y-95642857D01*
X154487857Y-95357142D01*
X154487857Y-95000000D01*
X154416428Y-94714285D01*
X154345000Y-94571428D01*
X154273571Y-94500000D01*
X154130714Y-94428571D01*
X153059285Y-94571428D02*
X152987857Y-94500000D01*
X152845000Y-94428571D01*
X152487857Y-94428571D01*
X152345000Y-94500000D01*
X152273571Y-94571428D01*
X152202142Y-94714285D01*
X152202142Y-94857142D01*
X152273571Y-95071428D01*
X153130714Y-95928571D01*
X152202142Y-95928571D01*
X151630714Y-94571428D02*
X151559285Y-94500000D01*
X151416428Y-94428571D01*
X151059285Y-94428571D01*
X150916428Y-94500000D01*
X150845000Y-94571428D01*
X150773571Y-94714285D01*
X150773571Y-94857142D01*
X150845000Y-95071428D01*
X151702142Y-95928571D01*
X150773571Y-95928571D01*
D11*
X149663452Y-97442261D02*
X149300595Y-97442261D01*
X149482023Y-98077261D02*
X149482023Y-97442261D01*
X148786547Y-98077261D02*
X149088928Y-98077261D01*
X149088928Y-97442261D01*
D10*
X163630714Y-97762142D02*
X163416428Y-97833571D01*
X163059285Y-97833571D01*
X162916428Y-97762142D01*
X162845000Y-97690714D01*
X162773571Y-97547857D01*
X162773571Y-97405000D01*
X162845000Y-97262142D01*
X162916428Y-97190714D01*
X163059285Y-97119285D01*
X163345000Y-97047857D01*
X163487857Y-96976428D01*
X163559285Y-96905000D01*
X163630714Y-96762142D01*
X163630714Y-96619285D01*
X163559285Y-96476428D01*
X163487857Y-96405000D01*
X163345000Y-96333571D01*
X162987857Y-96333571D01*
X162773571Y-96405000D01*
X161487857Y-97762142D02*
X161630714Y-97833571D01*
X161916428Y-97833571D01*
X162059285Y-97762142D01*
X162130714Y-97690714D01*
X162202142Y-97547857D01*
X162202142Y-97119285D01*
X162130714Y-96976428D01*
X162059285Y-96905000D01*
X161916428Y-96833571D01*
X161630714Y-96833571D01*
X161487857Y-96905000D01*
X160845000Y-97833571D02*
X160845000Y-96833571D01*
X160845000Y-96333571D02*
X160916428Y-96405000D01*
X160845000Y-96476428D01*
X160773571Y-96405000D01*
X160845000Y-96333571D01*
X160845000Y-96476428D01*
X160130714Y-97833571D02*
X160130714Y-96333571D01*
X159630714Y-97405000D01*
X159130714Y-96333571D01*
X159130714Y-97833571D01*
X158202142Y-97833571D02*
X158345000Y-97762142D01*
X158416428Y-97690714D01*
X158487857Y-97547857D01*
X158487857Y-97119285D01*
X158416428Y-96976428D01*
X158345000Y-96905000D01*
X158202142Y-96833571D01*
X157987857Y-96833571D01*
X157845000Y-96905000D01*
X157773571Y-96976428D01*
X157702142Y-97119285D01*
X157702142Y-97547857D01*
X157773571Y-97690714D01*
X157845000Y-97762142D01*
X157987857Y-97833571D01*
X158202142Y-97833571D01*
X157273571Y-96833571D02*
X156702142Y-96833571D01*
X157059285Y-96333571D02*
X157059285Y-97619285D01*
X156987857Y-97762142D01*
X156845000Y-97833571D01*
X156702142Y-97833571D01*
X155987857Y-97833571D02*
X156130714Y-97762142D01*
X156202142Y-97690714D01*
X156273571Y-97547857D01*
X156273571Y-97119285D01*
X156202142Y-96976428D01*
X156130714Y-96905000D01*
X155987857Y-96833571D01*
X155773571Y-96833571D01*
X155630714Y-96905000D01*
X155559285Y-96976428D01*
X155487857Y-97119285D01*
X155487857Y-97547857D01*
X155559285Y-97690714D01*
X155630714Y-97762142D01*
X155773571Y-97833571D01*
X155987857Y-97833571D01*
X154845000Y-97833571D02*
X154845000Y-96833571D01*
X154845000Y-97119285D02*
X154773571Y-96976428D01*
X154702142Y-96905000D01*
X154559285Y-96833571D01*
X154416428Y-96833571D01*
X153916428Y-97833571D02*
X153916428Y-96333571D01*
X153345000Y-96333571D01*
X153202142Y-96405000D01*
X153130714Y-96476428D01*
X153059285Y-96619285D01*
X153059285Y-96833571D01*
X153130714Y-96976428D01*
X153202142Y-97047857D01*
X153345000Y-97119285D01*
X153916428Y-97119285D01*
X151559285Y-97690714D02*
X151630714Y-97762142D01*
X151845000Y-97833571D01*
X151987857Y-97833571D01*
X152202142Y-97762142D01*
X152345000Y-97619285D01*
X152416428Y-97476428D01*
X152487857Y-97190714D01*
X152487857Y-96976428D01*
X152416428Y-96690714D01*
X152345000Y-96547857D01*
X152202142Y-96405000D01*
X151987857Y-96333571D01*
X151845000Y-96333571D01*
X151630714Y-96405000D01*
X151559285Y-96476428D01*
X150416428Y-97047857D02*
X150202142Y-97119285D01*
X150130714Y-97190714D01*
X150059285Y-97333571D01*
X150059285Y-97547857D01*
X150130714Y-97690714D01*
X150202142Y-97762142D01*
X150345000Y-97833571D01*
X150916428Y-97833571D01*
X150916428Y-96333571D01*
X150416428Y-96333571D01*
X150273571Y-96405000D01*
X150202142Y-96476428D01*
X150130714Y-96619285D01*
X150130714Y-96762142D01*
X150202142Y-96905000D01*
X150273571Y-96976428D01*
X150416428Y-97047857D01*
X150916428Y-97047857D01*
D12*
X173990000Y-95885000D02*
G75*
G03*
X173990000Y-95885000I-17145000J0D01*
G01*
%TO.C,Conn1*%
X156758000Y-70258000D02*
X156758000Y-78158000D01*
X155081000Y-69750000D02*
X155081000Y-70258000D01*
X156758000Y-78158000D02*
X148858000Y-78158000D01*
X164658000Y-76608000D02*
X164150000Y-76608000D01*
X158386000Y-69750000D02*
X162958000Y-69750000D01*
X148858000Y-70258000D02*
X148858000Y-78158000D01*
X156249400Y-76608000D02*
X156249400Y-72036000D01*
X164658000Y-78158000D02*
X156758000Y-78158000D01*
X156757400Y-76608000D02*
X156249400Y-76608000D01*
X150509000Y-70258000D02*
X150509000Y-69750000D01*
X164150000Y-72036000D02*
X164658000Y-72036000D01*
X148350000Y-72036000D02*
X148858000Y-72036000D01*
X150509000Y-69750000D02*
X155081000Y-69750000D01*
X162958000Y-69750000D02*
X162958000Y-70258000D01*
X156249400Y-72036000D02*
X156757400Y-72036000D01*
X148350000Y-76608000D02*
X148350000Y-72036000D01*
X158386000Y-70258000D02*
X158386000Y-69750000D01*
X156758000Y-70258000D02*
X148858000Y-70258000D01*
X148858000Y-76608000D02*
X148350000Y-76608000D01*
X164658000Y-70258000D02*
X164658000Y-78158000D01*
X164658000Y-70258000D02*
X156758000Y-70258000D01*
X164150000Y-76608000D02*
X164150000Y-72036000D01*
X164568809Y-69241142D02*
X164616428Y-69288761D01*
X164759285Y-69336380D01*
X164854523Y-69336380D01*
X164997380Y-69288761D01*
X165092619Y-69193523D01*
X165140238Y-69098285D01*
X165187857Y-68907809D01*
X165187857Y-68764952D01*
X165140238Y-68574476D01*
X165092619Y-68479238D01*
X164997380Y-68384000D01*
X164854523Y-68336380D01*
X164759285Y-68336380D01*
X164616428Y-68384000D01*
X164568809Y-68431619D01*
X163997380Y-69336380D02*
X164092619Y-69288761D01*
X164140238Y-69241142D01*
X164187857Y-69145904D01*
X164187857Y-68860190D01*
X164140238Y-68764952D01*
X164092619Y-68717333D01*
X163997380Y-68669714D01*
X163854523Y-68669714D01*
X163759285Y-68717333D01*
X163711666Y-68764952D01*
X163664047Y-68860190D01*
X163664047Y-69145904D01*
X163711666Y-69241142D01*
X163759285Y-69288761D01*
X163854523Y-69336380D01*
X163997380Y-69336380D01*
X163235476Y-68669714D02*
X163235476Y-69336380D01*
X163235476Y-68764952D02*
X163187857Y-68717333D01*
X163092619Y-68669714D01*
X162949761Y-68669714D01*
X162854523Y-68717333D01*
X162806904Y-68812571D01*
X162806904Y-69336380D01*
X162330714Y-68669714D02*
X162330714Y-69336380D01*
X162330714Y-68764952D02*
X162283095Y-68717333D01*
X162187857Y-68669714D01*
X162045000Y-68669714D01*
X161949761Y-68717333D01*
X161902142Y-68812571D01*
X161902142Y-69336380D01*
X160902142Y-69336380D02*
X161473571Y-69336380D01*
X161187857Y-69336380D02*
X161187857Y-68336380D01*
X161283095Y-68479238D01*
X161378333Y-68574476D01*
X161473571Y-68622095D01*
%TD*%
M02*
