%TF.GenerationSoftware,KiCad,Pcbnew,(5.1.9)-1*%
%TF.CreationDate,2022-03-15T15:37:10-05:00*%
%TF.ProjectId,SciMotorPCB,5363694d-6f74-46f7-9250-43422e6b6963,rev?*%
%TF.SameCoordinates,Original*%
%TF.FileFunction,Copper,L2,Bot*%
%TF.FilePolarity,Positive*%
%FSLAX46Y46*%
G04 Gerber Fmt 4.6, Leading zero omitted, Abs format (unit mm)*
G04 Created by KiCad (PCBNEW (5.1.9)-1) date 2022-03-15 15:37:10*
%MOMM*%
%LPD*%
G01*
G04 APERTURE LIST*
%TA.AperFunction,ComponentPad*%
%ADD10O,5.100000X3.000000*%
%TD*%
%TA.AperFunction,ComponentPad*%
%ADD11O,3.000000X5.100000*%
%TD*%
%TA.AperFunction,Conductor*%
%ADD12C,0.254000*%
%TD*%
%TA.AperFunction,Conductor*%
%ADD13C,0.100000*%
%TD*%
G04 APERTURE END LIST*
%TO.P,J2,1*%
%TO.N,Net-(Conn1-Pad1)*%
%TA.AperFunction,ComponentPad*%
G36*
G01*
X147226357Y-87954615D02*
X148711283Y-86469689D01*
G75*
G02*
X150832601Y-86469689I1060659J-1060659D01*
G01*
X150832601Y-86469689D01*
G75*
G02*
X150832601Y-88591007I-1060659J-1060659D01*
G01*
X149347675Y-90075933D01*
G75*
G02*
X147226357Y-90075933I-1060659J1060659D01*
G01*
X147226357Y-90075933D01*
G75*
G02*
X147226357Y-87954615I1060659J1060659D01*
G01*
G37*
%TD.AperFunction*%
%TD*%
%TO.P,J1,1*%
%TO.N,Net-(Conn1-Pad2)*%
%TA.AperFunction,ComponentPad*%
G36*
G01*
X166380183Y-104144244D02*
X164895257Y-105629170D01*
G75*
G02*
X162773939Y-105629170I-1060659J1060659D01*
G01*
X162773939Y-105629170D01*
G75*
G02*
X162773939Y-103507852I1060659J1060659D01*
G01*
X164258865Y-102022926D01*
G75*
G02*
X166380183Y-102022926I1060659J-1060659D01*
G01*
X166380183Y-102022926D01*
G75*
G02*
X166380183Y-104144244I-1060659J-1060659D01*
G01*
G37*
%TD.AperFunction*%
%TD*%
D10*
%TO.P,Conn1,2*%
%TO.N,Net-(Conn1-Pad2)*%
X160708000Y-75058000D03*
%TO.P,Conn1,1*%
%TO.N,Net-(Conn1-Pad1)*%
X152808000Y-75058000D03*
%TD*%
D11*
%TO.P,J1,1*%
%TO.N,Net-(Conn1-Pad1)*%
X145796000Y-95885000D03*
%TD*%
%TO.P,J2,1*%
%TO.N,Net-(Conn1-Pad2)*%
X167787600Y-95889000D03*
%TD*%
D12*
%TO.N,Net-(Conn1-Pad2)*%
X166611204Y-73076815D02*
X166843226Y-73146867D01*
X167057222Y-73260650D01*
X167245041Y-73413832D01*
X167399530Y-73600577D01*
X167514801Y-73813769D01*
X167586472Y-74045300D01*
X167615190Y-74318533D01*
X167697658Y-83234233D01*
X167708104Y-83331104D01*
X167746993Y-83455160D01*
X167809336Y-83569245D01*
X167892739Y-83668976D01*
X167915873Y-83687606D01*
X169031697Y-84802100D01*
X170037840Y-86021165D01*
X170922513Y-87331058D01*
X171677561Y-88719705D01*
X172296037Y-90174331D01*
X172772250Y-91681549D01*
X173101805Y-93227447D01*
X173281677Y-94797842D01*
X173310207Y-96378223D01*
X173187130Y-97954076D01*
X172913583Y-99510870D01*
X172492081Y-101034285D01*
X171926508Y-102510286D01*
X171222069Y-103925286D01*
X170385255Y-105266246D01*
X169423766Y-106520833D01*
X168346455Y-107677490D01*
X167163243Y-108725567D01*
X165885024Y-109655411D01*
X164523574Y-110458461D01*
X163091418Y-111127327D01*
X161601748Y-111655847D01*
X160068278Y-112039156D01*
X158505140Y-112273722D01*
X157607000Y-112321329D01*
X157607000Y-73050000D01*
X166337723Y-73050000D01*
X166611204Y-73076815D01*
%TA.AperFunction,Conductor*%
D13*
G36*
X166611204Y-73076815D02*
G01*
X166843226Y-73146867D01*
X167057222Y-73260650D01*
X167245041Y-73413832D01*
X167399530Y-73600577D01*
X167514801Y-73813769D01*
X167586472Y-74045300D01*
X167615190Y-74318533D01*
X167697658Y-83234233D01*
X167708104Y-83331104D01*
X167746993Y-83455160D01*
X167809336Y-83569245D01*
X167892739Y-83668976D01*
X167915873Y-83687606D01*
X169031697Y-84802100D01*
X170037840Y-86021165D01*
X170922513Y-87331058D01*
X171677561Y-88719705D01*
X172296037Y-90174331D01*
X172772250Y-91681549D01*
X173101805Y-93227447D01*
X173281677Y-94797842D01*
X173310207Y-96378223D01*
X173187130Y-97954076D01*
X172913583Y-99510870D01*
X172492081Y-101034285D01*
X171926508Y-102510286D01*
X171222069Y-103925286D01*
X170385255Y-105266246D01*
X169423766Y-106520833D01*
X168346455Y-107677490D01*
X167163243Y-108725567D01*
X165885024Y-109655411D01*
X164523574Y-110458461D01*
X163091418Y-111127327D01*
X161601748Y-111655847D01*
X160068278Y-112039156D01*
X158505140Y-112273722D01*
X157607000Y-112321329D01*
X157607000Y-73050000D01*
X166337723Y-73050000D01*
X166611204Y-73076815D01*
G37*
%TD.AperFunction*%
%TD*%
D12*
%TO.N,Net-(Conn1-Pad1)*%
X156083000Y-112321056D02*
X155347522Y-112289384D01*
X153782118Y-112070334D01*
X152244921Y-111702255D01*
X150750095Y-111188543D01*
X149311370Y-110533914D01*
X147942011Y-109744403D01*
X146654643Y-108827291D01*
X145461088Y-107790999D01*
X144372360Y-106645089D01*
X143398472Y-105400103D01*
X142548395Y-104067502D01*
X141829955Y-102659563D01*
X141249770Y-101189250D01*
X140813175Y-99670086D01*
X140524199Y-98116084D01*
X140385497Y-96541529D01*
X140398347Y-94960931D01*
X140562631Y-93388856D01*
X140876839Y-91839741D01*
X141338073Y-90327889D01*
X141942089Y-88867200D01*
X142683327Y-87471126D01*
X143554960Y-86152522D01*
X144548963Y-84923533D01*
X145665388Y-83786094D01*
X145846822Y-83620917D01*
X145883948Y-83590448D01*
X145966425Y-83489950D01*
X146027710Y-83375293D01*
X146065450Y-83250883D01*
X146075000Y-83153919D01*
X146075000Y-74327277D01*
X146101815Y-74053796D01*
X146171867Y-73821774D01*
X146285650Y-73607778D01*
X146438832Y-73419959D01*
X146625577Y-73265470D01*
X146838769Y-73150199D01*
X147070300Y-73078528D01*
X147341725Y-73050000D01*
X156083000Y-73050000D01*
X156083000Y-112321056D01*
%TA.AperFunction,Conductor*%
D13*
G36*
X156083000Y-112321056D02*
G01*
X155347522Y-112289384D01*
X153782118Y-112070334D01*
X152244921Y-111702255D01*
X150750095Y-111188543D01*
X149311370Y-110533914D01*
X147942011Y-109744403D01*
X146654643Y-108827291D01*
X145461088Y-107790999D01*
X144372360Y-106645089D01*
X143398472Y-105400103D01*
X142548395Y-104067502D01*
X141829955Y-102659563D01*
X141249770Y-101189250D01*
X140813175Y-99670086D01*
X140524199Y-98116084D01*
X140385497Y-96541529D01*
X140398347Y-94960931D01*
X140562631Y-93388856D01*
X140876839Y-91839741D01*
X141338073Y-90327889D01*
X141942089Y-88867200D01*
X142683327Y-87471126D01*
X143554960Y-86152522D01*
X144548963Y-84923533D01*
X145665388Y-83786094D01*
X145846822Y-83620917D01*
X145883948Y-83590448D01*
X145966425Y-83489950D01*
X146027710Y-83375293D01*
X146065450Y-83250883D01*
X146075000Y-83153919D01*
X146075000Y-74327277D01*
X146101815Y-74053796D01*
X146171867Y-73821774D01*
X146285650Y-73607778D01*
X146438832Y-73419959D01*
X146625577Y-73265470D01*
X146838769Y-73150199D01*
X147070300Y-73078528D01*
X147341725Y-73050000D01*
X156083000Y-73050000D01*
X156083000Y-112321056D01*
G37*
%TD.AperFunction*%
%TD*%
M02*
