%TF.GenerationSoftware,KiCad,Pcbnew,(5.1.9)-1*%
%TF.CreationDate,2022-03-15T15:37:10-05:00*%
%TF.ProjectId,SciMotorPCB,5363694d-6f74-46f7-9250-43422e6b6963,rev?*%
%TF.SameCoordinates,Original*%
%TF.FileFunction,Legend,Top*%
%TF.FilePolarity,Positive*%
%FSLAX46Y46*%
G04 Gerber Fmt 4.6, Leading zero omitted, Abs format (unit mm)*
G04 Created by KiCad (PCBNEW (5.1.9)-1) date 2022-03-15 15:37:10*
%MOMM*%
%LPD*%
G01*
G04 APERTURE LIST*
%ADD10C,0.076200*%
%ADD11C,0.300000*%
%ADD12C,0.150000*%
G04 APERTURE END LIST*
D10*
X164026547Y-97442261D02*
X164389404Y-97442261D01*
X164207976Y-98077261D02*
X164207976Y-97442261D01*
X164903452Y-98077261D02*
X164601071Y-98077261D01*
X164601071Y-97442261D01*
D11*
X150059285Y-97762142D02*
X150273571Y-97833571D01*
X150630714Y-97833571D01*
X150773571Y-97762142D01*
X150845000Y-97690714D01*
X150916428Y-97547857D01*
X150916428Y-97405000D01*
X150845000Y-97262142D01*
X150773571Y-97190714D01*
X150630714Y-97119285D01*
X150345000Y-97047857D01*
X150202142Y-96976428D01*
X150130714Y-96905000D01*
X150059285Y-96762142D01*
X150059285Y-96619285D01*
X150130714Y-96476428D01*
X150202142Y-96405000D01*
X150345000Y-96333571D01*
X150702142Y-96333571D01*
X150916428Y-96405000D01*
X152202142Y-97762142D02*
X152059285Y-97833571D01*
X151773571Y-97833571D01*
X151630714Y-97762142D01*
X151559285Y-97690714D01*
X151487857Y-97547857D01*
X151487857Y-97119285D01*
X151559285Y-96976428D01*
X151630714Y-96905000D01*
X151773571Y-96833571D01*
X152059285Y-96833571D01*
X152202142Y-96905000D01*
X152845000Y-97833571D02*
X152845000Y-96833571D01*
X152845000Y-96333571D02*
X152773571Y-96405000D01*
X152845000Y-96476428D01*
X152916428Y-96405000D01*
X152845000Y-96333571D01*
X152845000Y-96476428D01*
X153559285Y-97833571D02*
X153559285Y-96333571D01*
X154059285Y-97405000D01*
X154559285Y-96333571D01*
X154559285Y-97833571D01*
X155487857Y-97833571D02*
X155345000Y-97762142D01*
X155273571Y-97690714D01*
X155202142Y-97547857D01*
X155202142Y-97119285D01*
X155273571Y-96976428D01*
X155345000Y-96905000D01*
X155487857Y-96833571D01*
X155702142Y-96833571D01*
X155845000Y-96905000D01*
X155916428Y-96976428D01*
X155987857Y-97119285D01*
X155987857Y-97547857D01*
X155916428Y-97690714D01*
X155845000Y-97762142D01*
X155702142Y-97833571D01*
X155487857Y-97833571D01*
X156416428Y-96833571D02*
X156987857Y-96833571D01*
X156630714Y-96333571D02*
X156630714Y-97619285D01*
X156702142Y-97762142D01*
X156845000Y-97833571D01*
X156987857Y-97833571D01*
X157702142Y-97833571D02*
X157559285Y-97762142D01*
X157487857Y-97690714D01*
X157416428Y-97547857D01*
X157416428Y-97119285D01*
X157487857Y-96976428D01*
X157559285Y-96905000D01*
X157702142Y-96833571D01*
X157916428Y-96833571D01*
X158059285Y-96905000D01*
X158130714Y-96976428D01*
X158202142Y-97119285D01*
X158202142Y-97547857D01*
X158130714Y-97690714D01*
X158059285Y-97762142D01*
X157916428Y-97833571D01*
X157702142Y-97833571D01*
X158845000Y-97833571D02*
X158845000Y-96833571D01*
X158845000Y-97119285D02*
X158916428Y-96976428D01*
X158987857Y-96905000D01*
X159130714Y-96833571D01*
X159273571Y-96833571D01*
X159773571Y-97833571D02*
X159773571Y-96333571D01*
X160345000Y-96333571D01*
X160487857Y-96405000D01*
X160559285Y-96476428D01*
X160630714Y-96619285D01*
X160630714Y-96833571D01*
X160559285Y-96976428D01*
X160487857Y-97047857D01*
X160345000Y-97119285D01*
X159773571Y-97119285D01*
X162130714Y-97690714D02*
X162059285Y-97762142D01*
X161845000Y-97833571D01*
X161702142Y-97833571D01*
X161487857Y-97762142D01*
X161345000Y-97619285D01*
X161273571Y-97476428D01*
X161202142Y-97190714D01*
X161202142Y-96976428D01*
X161273571Y-96690714D01*
X161345000Y-96547857D01*
X161487857Y-96405000D01*
X161702142Y-96333571D01*
X161845000Y-96333571D01*
X162059285Y-96405000D01*
X162130714Y-96476428D01*
X163273571Y-97047857D02*
X163487857Y-97119285D01*
X163559285Y-97190714D01*
X163630714Y-97333571D01*
X163630714Y-97547857D01*
X163559285Y-97690714D01*
X163487857Y-97762142D01*
X163345000Y-97833571D01*
X162773571Y-97833571D01*
X162773571Y-96333571D01*
X163273571Y-96333571D01*
X163416428Y-96405000D01*
X163487857Y-96476428D01*
X163559285Y-96619285D01*
X163559285Y-96762142D01*
X163487857Y-96905000D01*
X163416428Y-96976428D01*
X163273571Y-97047857D01*
X162773571Y-97047857D01*
X150845000Y-95928571D02*
X150845000Y-94428571D01*
X151345000Y-95500000D01*
X151845000Y-94428571D01*
X151845000Y-95928571D01*
X153416428Y-95928571D02*
X152916428Y-95214285D01*
X152559285Y-95928571D02*
X152559285Y-94428571D01*
X153130714Y-94428571D01*
X153273571Y-94500000D01*
X153345000Y-94571428D01*
X153416428Y-94714285D01*
X153416428Y-94928571D01*
X153345000Y-95071428D01*
X153273571Y-95142857D01*
X153130714Y-95214285D01*
X152559285Y-95214285D01*
X154059285Y-95928571D02*
X154059285Y-94428571D01*
X154416428Y-94428571D01*
X154630714Y-94500000D01*
X154773571Y-94642857D01*
X154845000Y-94785714D01*
X154916428Y-95071428D01*
X154916428Y-95285714D01*
X154845000Y-95571428D01*
X154773571Y-95714285D01*
X154630714Y-95857142D01*
X154416428Y-95928571D01*
X154059285Y-95928571D01*
X155345000Y-94428571D02*
X156202142Y-94428571D01*
X155773571Y-95928571D02*
X155773571Y-94428571D01*
X157773571Y-94571428D02*
X157845000Y-94500000D01*
X157987857Y-94428571D01*
X158345000Y-94428571D01*
X158487857Y-94500000D01*
X158559285Y-94571428D01*
X158630714Y-94714285D01*
X158630714Y-94857142D01*
X158559285Y-95071428D01*
X157702142Y-95928571D01*
X158630714Y-95928571D01*
X159559285Y-94428571D02*
X159702142Y-94428571D01*
X159845000Y-94500000D01*
X159916428Y-94571428D01*
X159987857Y-94714285D01*
X160059285Y-95000000D01*
X160059285Y-95357142D01*
X159987857Y-95642857D01*
X159916428Y-95785714D01*
X159845000Y-95857142D01*
X159702142Y-95928571D01*
X159559285Y-95928571D01*
X159416428Y-95857142D01*
X159345000Y-95785714D01*
X159273571Y-95642857D01*
X159202142Y-95357142D01*
X159202142Y-95000000D01*
X159273571Y-94714285D01*
X159345000Y-94571428D01*
X159416428Y-94500000D01*
X159559285Y-94428571D01*
X160630714Y-94571428D02*
X160702142Y-94500000D01*
X160845000Y-94428571D01*
X161202142Y-94428571D01*
X161345000Y-94500000D01*
X161416428Y-94571428D01*
X161487857Y-94714285D01*
X161487857Y-94857142D01*
X161416428Y-95071428D01*
X160559285Y-95928571D01*
X161487857Y-95928571D01*
X162059285Y-94571428D02*
X162130714Y-94500000D01*
X162273571Y-94428571D01*
X162630714Y-94428571D01*
X162773571Y-94500000D01*
X162845000Y-94571428D01*
X162916428Y-94714285D01*
X162916428Y-94857142D01*
X162845000Y-95071428D01*
X161987857Y-95928571D01*
X162916428Y-95928571D01*
D12*
%TO.C,J2*%
X140588039Y-74263611D02*
X149280927Y-82956499D01*
X135020280Y-76598478D02*
X134212057Y-77406701D01*
X138163369Y-73455388D02*
X137337186Y-74281572D01*
X140570078Y-74245651D02*
X139797776Y-73473349D01*
X131877190Y-65552763D02*
X137355146Y-71030719D01*
X143713168Y-88524258D02*
X149280927Y-82956499D01*
X131859230Y-65534802D02*
X126309431Y-71084600D01*
X138163369Y-71838942D02*
X137301265Y-70976837D01*
X135020280Y-79831370D02*
X143713168Y-88524258D01*
X135020280Y-76598478D02*
X137337186Y-74281572D01*
X126291471Y-71102561D02*
X132649492Y-77460582D01*
X134158175Y-78969265D02*
X135020280Y-79831370D01*
X138163369Y-71838942D02*
G75*
G03*
X138163369Y-73455388I808223J-808223D01*
G01*
X134158176Y-78969265D02*
G75*
G03*
X134158175Y-77460582I-754342J754341D01*
G01*
X138163369Y-73455389D02*
G75*
G03*
X139779816Y-73455388I808223J808224D01*
G01*
X134194097Y-77496503D02*
G75*
G03*
X132685413Y-77424661I-790263J-718421D01*
G01*
%TO.C,J1*%
X173018501Y-117835248D02*
X164325613Y-109142360D01*
X178586260Y-115500381D02*
X179394483Y-114692158D01*
X175443171Y-118643471D02*
X176269354Y-117817287D01*
X173036462Y-117853208D02*
X173808764Y-118625510D01*
X181729350Y-126546096D02*
X176251394Y-121068140D01*
X169893372Y-103574601D02*
X164325613Y-109142360D01*
X181747310Y-126564057D02*
X187297109Y-121014259D01*
X175443171Y-120259917D02*
X176305275Y-121122022D01*
X178586260Y-112267489D02*
X169893372Y-103574601D01*
X178586260Y-115500381D02*
X176269354Y-117817287D01*
X187315069Y-120996298D02*
X180957048Y-114638277D01*
X179448365Y-113129594D02*
X178586260Y-112267489D01*
X175443171Y-120259917D02*
G75*
G03*
X175443171Y-118643471I-808223J808223D01*
G01*
X179448364Y-113129594D02*
G75*
G03*
X179448365Y-114638277I754342J-754341D01*
G01*
X175443171Y-118643470D02*
G75*
G03*
X173826724Y-118643471I-808223J-808224D01*
G01*
X179412443Y-114602356D02*
G75*
G03*
X180921127Y-114674198I790263J718421D01*
G01*
X129921000Y-91948000D02*
X142214600Y-91948000D01*
X127635000Y-97536000D02*
X127635000Y-98679000D01*
X127635000Y-93091000D02*
X127635000Y-94259400D01*
X129895600Y-91948000D02*
X128803400Y-91948000D01*
X117602000Y-91948000D02*
X125349000Y-91948000D01*
X142214600Y-99822000D02*
X142214600Y-91948000D01*
X117576600Y-91948000D02*
X117576600Y-99796600D01*
X126492000Y-91948000D02*
X125272800Y-91948000D01*
X129921000Y-99822000D02*
X142214600Y-99822000D01*
X127635000Y-97536000D02*
X127635000Y-94259400D01*
X117576600Y-99822000D02*
X126568200Y-99822000D01*
X128701800Y-99822000D02*
X129921000Y-99822000D01*
X127685800Y-98755200D02*
G75*
G03*
X126568200Y-99771200I-50800J-1066800D01*
G01*
X127635000Y-93091000D02*
G75*
G03*
X128778000Y-91948000I0J1143000D01*
G01*
X128701800Y-99822000D02*
G75*
G03*
X127635000Y-98755200I-1066800J0D01*
G01*
X126492000Y-91948000D02*
G75*
G03*
X127635000Y-93091000I1143000J0D01*
G01*
%TO.C,J2*%
X183662600Y-99826000D02*
X171369000Y-99826000D01*
X185948600Y-94238000D02*
X185948600Y-93095000D01*
X185948600Y-98683000D02*
X185948600Y-97514600D01*
X183688000Y-99826000D02*
X184780200Y-99826000D01*
X195981600Y-99826000D02*
X188234600Y-99826000D01*
X171369000Y-91952000D02*
X171369000Y-99826000D01*
X196007000Y-99826000D02*
X196007000Y-91977400D01*
X187091600Y-99826000D02*
X188310800Y-99826000D01*
X183662600Y-91952000D02*
X171369000Y-91952000D01*
X185948600Y-94238000D02*
X185948600Y-97514600D01*
X196007000Y-91952000D02*
X187015400Y-91952000D01*
X184881800Y-91952000D02*
X183662600Y-91952000D01*
X185897800Y-93018800D02*
G75*
G03*
X187015400Y-92002800I50800J1066800D01*
G01*
X185948600Y-98683000D02*
G75*
G03*
X184805600Y-99826000I0J-1143000D01*
G01*
X184881800Y-91952000D02*
G75*
G03*
X185948600Y-93018800I1066800J0D01*
G01*
X187091600Y-99826000D02*
G75*
G03*
X185948600Y-98683000I-1143000J0D01*
G01*
X141790038Y-87085329D02*
X141284962Y-87590405D01*
X141150275Y-87657749D01*
X141015588Y-87657749D01*
X140880901Y-87590405D01*
X140813558Y-87523062D01*
X142025741Y-87455718D02*
X142093084Y-87455718D01*
X142194099Y-87489390D01*
X142362458Y-87657749D01*
X142396130Y-87758764D01*
X142396130Y-87826108D01*
X142362458Y-87927123D01*
X142295115Y-87994466D01*
X142160428Y-88061810D01*
X141352306Y-88061810D01*
X141790038Y-88499543D01*
%TO.C,J1*%
X172119546Y-103767674D02*
X171614470Y-104272750D01*
X171479783Y-104340094D01*
X171345096Y-104340094D01*
X171210409Y-104272750D01*
X171143066Y-104205407D01*
X172119546Y-105181888D02*
X171715485Y-104777827D01*
X171917516Y-104979857D02*
X172624623Y-104272750D01*
X172456264Y-104306422D01*
X172321577Y-104306422D01*
X172220562Y-104272750D01*
X139837266Y-100164380D02*
X139837266Y-100878666D01*
X139789647Y-101021523D01*
X139694409Y-101116761D01*
X139551552Y-101164380D01*
X139456314Y-101164380D01*
X140837266Y-101164380D02*
X140265838Y-101164380D01*
X140551552Y-101164380D02*
X140551552Y-100164380D01*
X140456314Y-100307238D01*
X140361076Y-100402476D01*
X140265838Y-100450095D01*
%TO.C,J2*%
X173079666Y-90514380D02*
X173079666Y-91228666D01*
X173032047Y-91371523D01*
X172936809Y-91466761D01*
X172793952Y-91514380D01*
X172698714Y-91514380D01*
X173508238Y-90609619D02*
X173555857Y-90562000D01*
X173651095Y-90514380D01*
X173889190Y-90514380D01*
X173984428Y-90562000D01*
X174032047Y-90609619D01*
X174079666Y-90704857D01*
X174079666Y-90800095D01*
X174032047Y-90942952D01*
X173460619Y-91514380D01*
X174079666Y-91514380D01*
%TD*%
M02*
